0
SECTION
2
HEADER
9
$INSUNITS
70
4
9
$ACADVER
1
AC1014
9
$HANDSEED
5
FFFF
0
ENDSEC
0
SECTION
2
TABLES
0
TABLE
2
VPORT
5
8
100
AcDbSymbolTable
0
ENDTAB
0
TABLE
2
LTYPE
5
5
100
AcDbSymbolTable
0
LTYPE
5
14
100
AcDbSymbolTableRecord
100
AcDbLinetypeTableRecord
2
BYBLOCK
70
0
0
LTYPE
5
15
100
AcDbSymbolTableRecord
100
AcDbLinetypeTableRecord
2
BYLAYER
70
0
0
ENDTAB
0
TABLE
2
LAYER
5
2
100
AcDbSymbolTable
70
2
0
LAYER
5
50
100
AcDbSymbolTableRecord
100
AcDbLayerTableRecord
2
0
70
0
6
CONTINUOUS
0
ENDTAB
0
TABLE
2
STYLE
5
3
100
AcDbSymbolTable
70
1
0
STYLE
5
11
100
AcDbSymbolTableRecord
100
AcDbTextStyleTableRecord
2
STANDARD
70
0
0
ENDTAB
0
TABLE
2
VIEW
5
6
100
AcDbSymbolTable
70
0
0
ENDTAB
0
TABLE
2
UCS
5
7
100
AcDbSymbolTable
70
0
0
ENDTAB
0
TABLE
2
APPID
5
9
100
AcDbSymbolTable
70
2
0
APPID
5
12
100
AcDbSymbolTableRecord
100
AcDbRegAppTableRecord
2
ACAD
70
0
0
ENDTAB
0
TABLE
2
DIMSTYLE
5
A
100
AcDbSymbolTable
70
1
0
ENDTAB
0
TABLE
2
BLOCK_RECORD
5
1
100
AcDbSymbolTable
70
1
0
BLOCK_RECORD
5
1F
100
AcDbSymbolTableRecord
100
AcDbBlockTableRecord
2
*MODEL_SPACE
0
BLOCK_RECORD
5
1B
100
AcDbSymbolTableRecord
100
AcDbBlockTableRecord
2
*PAPER_SPACE
0
ENDTAB
0
ENDSEC
0
SECTION
2
BLOCKS
0
BLOCK
5
20
100
AcDbEntity
100
AcDbBlockBegin
2
*MODEL_SPACE
0
ENDBLK
5
21
100
AcDbEntity
100
AcDbBlockEnd
0
BLOCK
5
1C
100
AcDbEntity
100
AcDbBlockBegin
2
*PAPER_SPACE
0
ENDBLK
5
1D
100
AcDbEntity
100
AcDbBlockEnd
0
ENDSEC
0
SECTION
2
ENTITIES
0
LWPOLYLINE
5
100
100
AcDbEntity
8
0
100
AcDbPolyline
90
24
70
1
43
0.0
10
60.465209402210832
20
62.718542735543409
42
-0.41421356237309137
10
64.035209402210825
20
59.148542735543444
10
64.03520940221091
20
47.888542735543481
42
-0.4142135623730987
10
60.465209402210874
20
44.318542735543446
10
35.855209402210384
20
44.318542735543716
42
0.41421356237309903
10
32.285209402210342
20
40.748542735543708
10
32.285209402210491
20
-35.311457264456628
42
0.41421356237309614
10
35.855209402210512
20
-38.881457264456614
10
60.465209402210654
20
-38.881457264456465
42
-0.41421356237310014
10
64.035209402210683
20
-42.451457264456501
10
64.035209402210583
20
-53.711457264456435
42
-0.41421356237309359
10
60.465209402210569
20
-57.281457264456407
10
-22.394790597789445
20
-57.281457264456407
42
-0.41421356237309542
10
-25.964790597789438
20
-53.711457264456399
10
-25.964790597789403
20
-42.451457264456423
42
-0.41421356237309542
10
-22.394790597789381
20
-38.881457264456436
10
2.2152094022100184
20
-38.881457264456614
42
0.41421356237309459
10
5.7852094022100431
20
-35.311457264456642
10
5.7852094022107625
20
40.748542735543822
42
0.41421356237309886
10
2.2152094022107516
20
44.318542735543858
10
-22.394790597789196
20
44.318542735543794
42
-0.41421356237309542
10
-25.964790597789204
20
47.888542735543794
10
-25.96479059778919
20
59.148542735543721
42
-0.41421356237309725
10
-22.394790597789182
20
62.718542735543721
0
CIRCLE
5
101
100
AcDbEntity
8
0
100
AcDbCircle
10
25.950359402210573
20
9.633692735543562
30
0
40
1.7525000000000013
210
0
220
-0
230
1
0
CIRCLE
5
102
100
AcDbEntity
8
0
100
AcDbCircle
10
12.120059402210517
20
9.6336927355435638
30
0
40
1.7525000000000013
210
0
220
-0
230
1
0
CIRCLE
5
103
100
AcDbEntity
8
0
100
AcDbCircle
10
12.120059402210543
20
-4.1966072644564179
30
0
40
1.7525000000000013
210
0
220
-0
230
1
0
CIRCLE
5
104
100
AcDbEntity
8
0
100
AcDbCircle
10
19.035209402210572
20
2.7185427355435854
30
0
40
4.7625000000000002
210
0
220
-0
230
1
0
CIRCLE
5
105
100
AcDbEntity
8
0
100
AcDbCircle
10
25.950359402210537
20
-4.1966072644564223
30
0
40
1.7525000000000013
210
0
220
-0
230
1
0
LWPOLYLINE
5
106
100
AcDbEntity
8
0
100
AcDbPolyline
90
4
70
1
43
0.0
10
-19.064790597789333
20
49.948542735543626
10
6.3352094022106575
20
49.948542735543583
42
0.99999999999999989
10
6.3352094022106691
20
57.088542735543598
10
-19.064790597789322
20
57.088542735543648
42
0.99999999999999989
0
LWPOLYLINE
5
107
100
AcDbEntity
8
0
100
AcDbPolyline
90
4
70
1
43
0.0
10
57.135209402210627
20
57.088542735543399
42
-0.99999999999999989
10
57.135209402210556
20
49.948542735543356
10
31.735209402210568
20
49.948542735543519
42
-0.99999999999999989
10
31.735209402210614
20
57.088542735543591
0
LWPOLYLINE
5
108
100
AcDbEntity
8
0
100
AcDbPolyline
90
4
70
1
43
0.0
10
-19.06479059778945
20
-51.65145726445634
10
6.3352094022105465
20
-51.651457264456447
42
0.99999999999999989
10
6.3352094022105643
20
-44.511457264456411
10
-19.064790597789433
20
-44.51145726445634
42
0.99999999999999989
0
LWPOLYLINE
5
109
100
AcDbEntity
8
0
100
AcDbPolyline
90
4
70
1
43
0.0
10
31.735209402210472
20
-51.65145726445644
42
-0.99999999999999989
10
31.735209402210454
20
-44.511457264456418
10
57.135209402210457
20
-44.511457264456276
42
-0.99999999999999989
10
57.135209402210457
20
-51.651457264456425
0
ENDSEC
0
SECTION
2
OBJECTS
0
DICTIONARY
5
C
100
AcDbDictionary
3
ACAD_GROUP
350
D
3
ACAD_MLINESTYLE
350
17
0
DICTIONARY
5
D
100
AcDbDictionary
0
DICTIONARY
5
1A
330
C
100
AcDbDictionary
0
DICTIONARY
5
17
100
AcDbDictionary
0
ENDSEC
0
EOF
