0
SECTION
2
HEADER
9
$INSUNITS
70
4
9
$ACADVER
1
AC1014
9
$HANDSEED
5
FFFF
0
ENDSEC
0
SECTION
2
TABLES
0
TABLE
2
VPORT
5
8
100
AcDbSymbolTable
0
ENDTAB
0
TABLE
2
LTYPE
5
5
100
AcDbSymbolTable
0
LTYPE
5
14
100
AcDbSymbolTableRecord
100
AcDbLinetypeTableRecord
2
BYBLOCK
70
0
0
LTYPE
5
15
100
AcDbSymbolTableRecord
100
AcDbLinetypeTableRecord
2
BYLAYER
70
0
0
ENDTAB
0
TABLE
2
LAYER
5
2
100
AcDbSymbolTable
70
2
0
LAYER
5
50
100
AcDbSymbolTableRecord
100
AcDbLayerTableRecord
2
0
70
0
6
CONTINUOUS
0
ENDTAB
0
TABLE
2
STYLE
5
3
100
AcDbSymbolTable
70
1
0
STYLE
5
11
100
AcDbSymbolTableRecord
100
AcDbTextStyleTableRecord
2
STANDARD
70
0
0
ENDTAB
0
TABLE
2
VIEW
5
6
100
AcDbSymbolTable
70
0
0
ENDTAB
0
TABLE
2
UCS
5
7
100
AcDbSymbolTable
70
0
0
ENDTAB
0
TABLE
2
APPID
5
9
100
AcDbSymbolTable
70
2
0
APPID
5
12
100
AcDbSymbolTableRecord
100
AcDbRegAppTableRecord
2
ACAD
70
0
0
ENDTAB
0
TABLE
2
DIMSTYLE
5
A
100
AcDbSymbolTable
70
1
0
ENDTAB
0
TABLE
2
BLOCK_RECORD
5
1
100
AcDbSymbolTable
70
1
0
BLOCK_RECORD
5
1F
100
AcDbSymbolTableRecord
100
AcDbBlockTableRecord
2
*MODEL_SPACE
0
BLOCK_RECORD
5
1B
100
AcDbSymbolTableRecord
100
AcDbBlockTableRecord
2
*PAPER_SPACE
0
ENDTAB
0
ENDSEC
0
SECTION
2
BLOCKS
0
BLOCK
5
20
100
AcDbEntity
100
AcDbBlockBegin
2
*MODEL_SPACE
0
ENDBLK
5
21
100
AcDbEntity
100
AcDbBlockEnd
0
BLOCK
5
1C
100
AcDbEntity
100
AcDbBlockBegin
2
*PAPER_SPACE
0
ENDBLK
5
1D
100
AcDbEntity
100
AcDbBlockEnd
0
ENDSEC
0
SECTION
2
ENTITIES
0
LWPOLYLINE
5
100
100
AcDbEntity
8
0
100
AcDbPolyline
90
8
70
1
43
0.0
10
-9.1499999999999932
20
-166.83500000000015
42
-0.41421356237309137
10
-15.499999999999993
20
-160.48500000000016
10
-15.499999999999975
20
61.814999999999856
42
-0.41421356237309431
10
-9.1499999999999773
20
68.16499999999985
10
9.1500000000000838
20
68.16499999999985
42
-0.41421356237309437
10
15.500000000000085
20
61.814999999999856
10
15.500000000000062
20
-160.48500000000013
42
-0.41421356237309392
10
9.1500000000000359
20
-166.83500000000015
0
CIRCLE
5
101
100
AcDbEntity
8
0
100
AcDbCircle
10
-6.9145944204992134
20
-142.92000000000016
30
0
40
1.9550000000000001
210
0
220
-0
230
1
0
CIRCLE
5
102
100
AcDbEntity
8
0
100
AcDbCircle
10
6.9145944204993679
20
-156.75000000000014
30
0
40
1.9550000000000001
210
0
220
-0
230
1
0
CIRCLE
5
103
100
AcDbEntity
8
0
100
AcDbCircle
10
-6.9145944204992027
20
-156.75000000000014
30
0
40
1.9550000000000001
210
0
220
-0
230
1
0
CIRCLE
5
104
100
AcDbEntity
8
0
100
AcDbCircle
10
7.1128378655627155e-14
20
-149.83500000000015
30
0
40
5
210
0
220
-0
230
1
0
CIRCLE
5
105
100
AcDbEntity
8
0
100
AcDbCircle
10
6.9145944204993679
20
-142.92000000000013
30
0
40
1.9550000000000001
210
0
220
-0
230
1
0
CIRCLE
5
106
100
AcDbEntity
8
0
100
AcDbCircle
10
6.9145944204993288
20
-42.420000000000151
30
0
40
1.9550000000000001
210
0
220
-0
230
1
0
CIRCLE
5
107
100
AcDbEntity
8
0
100
AcDbCircle
10
-6.9145944204992471
20
-42.420000000000151
30
0
40
1.9550000000000001
210
0
220
-0
230
1
0
LWPOLYLINE
5
108
100
AcDbEntity
8
0
100
AcDbPolyline
90
4
70
1
43
0.0
10
-10.499999999999979
20
-30.103019588933932
10
-3.4999999999999778
20
-30.103019588933932
10
-3.4999999999999778
20
9.8969804110660675
10
-10.499999999999979
20
9.8969804110660675
0
LWPOLYLINE
5
109
100
AcDbEntity
8
0
100
AcDbPolyline
90
4
70
1
43
0.0
10
10.499999999999975
20
-30.103019588933932
10
10.499999999999975
20
9.8969804110660675
10
3.4999999999999689
20
9.8969804110660675
10
3.4999999999999689
20
-30.103019588933932
0
LWPOLYLINE
5
110
100
AcDbEntity
8
0
100
AcDbPolyline
90
4
70
1
43
0.0
10
-10.499999999999902
20
-68.566980411066368
10
-10.499999999999909
20
-108.56698041106637
10
-3.499999999999901
20
-108.56698041106637
10
-3.4999999999998965
20
-68.566980411066368
0
LWPOLYLINE
5
111
100
AcDbEntity
8
0
100
AcDbPolyline
90
4
70
1
43
0.0
10
10.500000000000052
20
-68.566980411066368
10
3.5000000000000497
20
-68.566980411066368
10
3.5000000000000453
20
-108.56698041106637
10
10.500000000000044
20
-108.56698041106637
0
CIRCLE
5
112
100
AcDbEntity
8
0
100
AcDbCircle
10
6.9145944204993377
20
-56.250000000000142
30
0
40
1.9550000000000001
210
0
220
-0
230
1
0
CIRCLE
5
113
100
AcDbEntity
8
0
100
AcDbCircle
10
-6.9145944204992471
20
-56.250000000000142
30
0
40
1.9550000000000001
210
0
220
-0
230
1
0
CIRCLE
5
114
100
AcDbEntity
8
0
100
AcDbCircle
10
3.7290529526649811e-14
20
-49.33500000000015
30
0
40
6.5
210
0
220
-0
230
1
0
CIRCLE
5
115
100
AcDbEntity
8
0
100
AcDbCircle
10
-8.8550199337584379e-15
20
51.16499999999985
30
0
40
5
210
0
220
-0
230
1
0
CIRCLE
5
116
100
AcDbEntity
8
0
100
AcDbCircle
10
-6.9145944204993057
20
58.079999999999842
30
0
40
1.9550000000000001
210
0
220
-0
230
1
0
CIRCLE
5
117
100
AcDbEntity
8
0
100
AcDbCircle
10
6.9145944204992649
20
58.079999999999856
30
0
40
1.9550000000000001
210
0
220
-0
230
1
0
CIRCLE
5
118
100
AcDbEntity
8
0
100
AcDbCircle
10
6.9145944204992773
20
44.249999999999865
30
0
40
1.9550000000000001
210
0
220
-0
230
1
0
CIRCLE
5
119
100
AcDbEntity
8
0
100
AcDbCircle
10
-6.9145944204993048
20
44.249999999999829
30
0
40
1.9550000000000001
210
0
220
-0
230
1
0
ENDSEC
0
SECTION
2
OBJECTS
0
DICTIONARY
5
C
100
AcDbDictionary
3
ACAD_GROUP
350
D
3
ACAD_MLINESTYLE
350
17
0
DICTIONARY
5
D
100
AcDbDictionary
0
DICTIONARY
5
1A
330
C
100
AcDbDictionary
0
DICTIONARY
5
17
100
AcDbDictionary
0
ENDSEC
0
EOF
