0
SECTION
2
HEADER
9
$INSUNITS
70
4
9
$ACADVER
1
AC1014
9
$HANDSEED
5
FFFF
0
ENDSEC
0
SECTION
2
TABLES
0
TABLE
2
VPORT
5
8
100
AcDbSymbolTable
0
ENDTAB
0
TABLE
2
LTYPE
5
5
100
AcDbSymbolTable
0
LTYPE
5
14
100
AcDbSymbolTableRecord
100
AcDbLinetypeTableRecord
2
BYBLOCK
70
0
0
LTYPE
5
15
100
AcDbSymbolTableRecord
100
AcDbLinetypeTableRecord
2
BYLAYER
70
0
0
ENDTAB
0
TABLE
2
LAYER
5
2
100
AcDbSymbolTable
70
2
0
LAYER
5
50
100
AcDbSymbolTableRecord
100
AcDbLayerTableRecord
2
0
70
0
6
CONTINUOUS
0
ENDTAB
0
TABLE
2
STYLE
5
3
100
AcDbSymbolTable
70
1
0
STYLE
5
11
100
AcDbSymbolTableRecord
100
AcDbTextStyleTableRecord
2
STANDARD
70
0
0
ENDTAB
0
TABLE
2
VIEW
5
6
100
AcDbSymbolTable
70
0
0
ENDTAB
0
TABLE
2
UCS
5
7
100
AcDbSymbolTable
70
0
0
ENDTAB
0
TABLE
2
APPID
5
9
100
AcDbSymbolTable
70
2
0
APPID
5
12
100
AcDbSymbolTableRecord
100
AcDbRegAppTableRecord
2
ACAD
70
0
0
ENDTAB
0
TABLE
2
DIMSTYLE
5
A
100
AcDbSymbolTable
70
1
0
ENDTAB
0
TABLE
2
BLOCK_RECORD
5
1
100
AcDbSymbolTable
70
1
0
BLOCK_RECORD
5
1F
100
AcDbSymbolTableRecord
100
AcDbBlockTableRecord
2
*MODEL_SPACE
0
BLOCK_RECORD
5
1B
100
AcDbSymbolTableRecord
100
AcDbBlockTableRecord
2
*PAPER_SPACE
0
ENDTAB
0
ENDSEC
0
SECTION
2
BLOCKS
0
BLOCK
5
20
100
AcDbEntity
100
AcDbBlockBegin
2
*MODEL_SPACE
0
ENDBLK
5
21
100
AcDbEntity
100
AcDbBlockEnd
0
BLOCK
5
1C
100
AcDbEntity
100
AcDbBlockBegin
2
*PAPER_SPACE
0
ENDBLK
5
1D
100
AcDbEntity
100
AcDbBlockEnd
0
ENDSEC
0
SECTION
2
ENTITIES
0
LWPOLYLINE
5
100
100
AcDbEntity
8
0
100
AcDbPolyline
90
8
70
1
43
0.0
10
-9.1499999999999861
20
-154.83500000000004
42
-0.4142135623730967
10
-15.499999999999989
20
-148.48500000000007
10
-15.499999999999975
20
57.814999999999955
42
-0.41421356237309431
10
-9.1499999999999755
20
64.164999999999964
10
9.1500000000000732
20
64.164999999999949
42
-0.4142135623730937
10
15.500000000000075
20
57.814999999999976
10
15.500000000000034
20
-148.48500000000004
42
-0.41421356237309687
10
9.1500000000000323
20
-154.83500000000004
0
CIRCLE
5
101
100
AcDbEntity
8
0
100
AcDbCircle
10
-6.9145944204992631
20
-52.250000000000043
30
0
40
1.9550000000000001
210
0
220
-0
230
1
0
CIRCLE
5
102
100
AcDbEntity
8
0
100
AcDbCircle
10
6.9145944204993226
20
-52.250000000000043
30
0
40
1.9550000000000001
210
0
220
-0
230
1
0
CIRCLE
5
103
100
AcDbEntity
8
0
100
AcDbCircle
10
-6.9145944204992871
20
40.249999999999929
30
0
40
1.9550000000000001
210
0
220
-0
230
1
0
LWPOLYLINE
5
104
100
AcDbEntity
8
0
100
AcDbPolyline
90
4
70
1
43
0.0
10
-10.499999999999979
20
-30.103019588933929
10
-3.4999999999999778
20
-30.103019588933925
10
-3.4999999999999778
20
9.8969804110660764
10
-10.499999999999979
20
9.8969804110660711
0
CIRCLE
5
105
100
AcDbEntity
8
0
100
AcDbCircle
10
6.5268948308190546e-14
20
-137.83500000000004
30
0
40
5
210
0
220
-0
230
1
0
CIRCLE
5
106
100
AcDbEntity
8
0
100
AcDbCircle
10
-6.9145944204992631
20
-38.420000000000051
30
0
40
1.9550000000000001
210
0
220
-0
230
1
0
LWPOLYLINE
5
107
100
AcDbEntity
8
0
100
AcDbPolyline
90
4
70
1
43
0.0
10
-10.499999999999915
20
-100.56698041106615
10
-3.4999999999999054
20
-100.56698041106615
10
-3.499999999999901
20
-60.566980411066154
10
-10.499999999999908
20
-60.566980411066154
0
CIRCLE
5
108
100
AcDbEntity
8
0
100
AcDbCircle
10
6.9145944204993492
20
-144.75000000000003
30
0
40
1.9550000000000001
210
0
220
-0
230
1
0
CIRCLE
5
109
100
AcDbEntity
8
0
100
AcDbCircle
10
-6.9145944204992915
20
54.079999999999941
30
0
40
1.9550000000000001
210
0
220
-0
230
1
0
CIRCLE
5
110
100
AcDbEntity
8
0
100
AcDbCircle
10
3.4785528947603076e-14
20
-45.335000000000043
30
0
40
6.5
210
0
220
-0
230
1
0
CIRCLE
5
111
100
AcDbEntity
8
0
100
AcDbCircle
10
6.9145944204993466
20
-130.92000000000002
30
0
40
1.9550000000000001
210
0
220
-0
230
1
0
CIRCLE
5
112
100
AcDbEntity
8
0
100
AcDbCircle
10
6.9145944204993146
20
-38.420000000000051
30
0
40
1.9550000000000001
210
0
220
-0
230
1
0
CIRCLE
5
113
100
AcDbEntity
8
0
100
AcDbCircle
10
6.914594420499296
20
40.249999999999957
30
0
40
1.9550000000000001
210
0
220
-0
230
1
0
LWPOLYLINE
5
114
100
AcDbEntity
8
0
100
AcDbPolyline
90
4
70
1
43
0.0
10
10.499999999999975
20
-30.103019588933925
10
10.499999999999975
20
9.8969804110660764
10
3.4999999999999689
20
9.8969804110660711
10
3.4999999999999689
20
-30.103019588933929
0
CIRCLE
5
115
100
AcDbEntity
8
0
100
AcDbCircle
10
-7.0258733050974008e-15
20
47.164999999999957
30
0
40
4.9999999999999991
210
0
220
-0
230
1
0
CIRCLE
5
116
100
AcDbEntity
8
0
100
AcDbCircle
10
-6.9145944204992364
20
-130.92000000000007
30
0
40
1.9550000000000001
210
0
220
-0
230
1
0
LWPOLYLINE
5
117
100
AcDbEntity
8
0
100
AcDbPolyline
90
4
70
1
43
0.0
10
10.500000000000046
20
-60.566980411066154
10
3.5000000000000453
20
-60.566980411066154
10
3.5000000000000409
20
-100.56698041106615
10
10.500000000000041
20
-100.56698041106615
0
CIRCLE
5
118
100
AcDbEntity
8
0
100
AcDbCircle
10
6.9145944204992844
20
54.079999999999956
30
0
40
1.9550000000000001
210
0
220
-0
230
1
0
CIRCLE
5
119
100
AcDbEntity
8
0
100
AcDbCircle
10
-6.9145944204992276
20
-144.75000000000006
30
0
40
1.9550000000000001
210
0
220
-0
230
1
0
ENDSEC
0
SECTION
2
OBJECTS
0
DICTIONARY
5
C
100
AcDbDictionary
3
ACAD_GROUP
350
D
3
ACAD_MLINESTYLE
350
17
0
DICTIONARY
5
D
100
AcDbDictionary
0
DICTIONARY
5
1A
330
C
100
AcDbDictionary
0
DICTIONARY
5
17
100
AcDbDictionary
0
ENDSEC
0
EOF
