0
SECTION
2
HEADER
9
$INSUNITS
70
4
9
$ACADVER
1
AC1014
9
$HANDSEED
5
FFFF
0
ENDSEC
0
SECTION
2
TABLES
0
TABLE
2
VPORT
5
8
100
AcDbSymbolTable
0
ENDTAB
0
TABLE
2
LTYPE
5
5
100
AcDbSymbolTable
0
LTYPE
5
14
100
AcDbSymbolTableRecord
100
AcDbLinetypeTableRecord
2
BYBLOCK
70
0
0
LTYPE
5
15
100
AcDbSymbolTableRecord
100
AcDbLinetypeTableRecord
2
BYLAYER
70
0
0
ENDTAB
0
TABLE
2
LAYER
5
2
100
AcDbSymbolTable
70
2
0
LAYER
5
50
100
AcDbSymbolTableRecord
100
AcDbLayerTableRecord
2
0
70
0
6
CONTINUOUS
0
ENDTAB
0
TABLE
2
STYLE
5
3
100
AcDbSymbolTable
70
1
0
STYLE
5
11
100
AcDbSymbolTableRecord
100
AcDbTextStyleTableRecord
2
STANDARD
70
0
0
ENDTAB
0
TABLE
2
VIEW
5
6
100
AcDbSymbolTable
70
0
0
ENDTAB
0
TABLE
2
UCS
5
7
100
AcDbSymbolTable
70
0
0
ENDTAB
0
TABLE
2
APPID
5
9
100
AcDbSymbolTable
70
2
0
APPID
5
12
100
AcDbSymbolTableRecord
100
AcDbRegAppTableRecord
2
ACAD
70
0
0
ENDTAB
0
TABLE
2
DIMSTYLE
5
A
100
AcDbSymbolTable
70
1
0
ENDTAB
0
TABLE
2
BLOCK_RECORD
5
1
100
AcDbSymbolTable
70
1
0
BLOCK_RECORD
5
1F
100
AcDbSymbolTableRecord
100
AcDbBlockTableRecord
2
*MODEL_SPACE
0
BLOCK_RECORD
5
1B
100
AcDbSymbolTableRecord
100
AcDbBlockTableRecord
2
*PAPER_SPACE
0
ENDTAB
0
ENDSEC
0
SECTION
2
BLOCKS
0
BLOCK
5
20
100
AcDbEntity
100
AcDbBlockBegin
2
*MODEL_SPACE
0
ENDBLK
5
21
100
AcDbEntity
100
AcDbBlockEnd
0
BLOCK
5
1C
100
AcDbEntity
100
AcDbBlockBegin
2
*PAPER_SPACE
0
ENDBLK
5
1D
100
AcDbEntity
100
AcDbBlockEnd
0
ENDSEC
0
SECTION
2
ENTITIES
0
LWPOLYLINE
5
100
100
AcDbEntity
8
0
100
AcDbPolyline
90
36
70
1
43
0.0
10
26.291463922183304
20
-6.1448291130457333
42
-0.79322973223099325
10
-26.291463922183304
20
-6.1448291130457093
42
0.16604883292752851
10
-26.462778239923168
20
-5.8707834179415723
10
-27.395148729499841
20
-5.1121611731727885
42
0.17243113816217534
10
-27.710713373281891
20
-5.0000000000000009
10
-38.748419322599482
20
-4.9999999999999973
42
-0.39918868294368609
10
-41.744431125893257
20
-2.1546391752578122
42
-0.025790338700265286
10
-41.744431125893257
20
2.1546391752577381
42
-0.39918868294368609
10
-38.748419322599482
20
5.000000000000008
10
-27.710713373281884
20
5.0000000000000009
42
0.17243113816217318
10
-27.395148729499841
20
5.1121611731727876
10
-26.462778239923161
20
5.870783417941567
42
0.16604883292752595
10
-26.291463922183304
20
6.1448291130456951
42
-0.28528204354197018
10
-6.1448291130457244
20
26.291463922183294
42
0.1660488329275327
10
-5.8707834179415723
20
26.462778239923157
10
-5.1121611731727796
20
27.395148729499851
42
0.1724311381621724
10
-4.9999999999999964
20
27.710713373281894
10
-4.9999999999999964
20
38.748419322599467
42
-0.39918868294368681
10
-2.1546391752578087
20
41.744431125893243
42
-0.025790338700265286
10
2.1546391752577412
20
41.744431125893257
42
-0.39918868294368659
10
5.0000000000000089
20
38.748419322599482
10
5.0000000000000071
20
27.710713373281894
42
0.17243113816217281
10
5.1121611731727921
20
27.395148729499851
10
5.8707834179415848
20
26.462778239923157
42
0.16604883292752645
10
6.1448291130457271
20
26.291463922183297
42
-0.2852820435419699
10
26.291463922183294
20
6.1448291130457191
42
0.16604883292753192
10
26.462778239923161
20
5.8707834179415741
10
27.395148729499837
20
5.1121611731727938
42
0.17243113816217562
10
27.710713373281884
20
5.0000000000000044
10
38.748419322599474
20
5.000000000000008
42
-0.39918868294368692
10
41.744431125893257
20
2.1546391752578193
42
-0.025790338700265286
10
41.744431125893257
20
-2.1546391752577305
42
-0.39918868294368665
10
38.748419322599482
20
-4.9999999999999956
10
27.710713373281891
20
-4.9999999999999973
42
0.17243113816217037
10
27.395148729499851
20
-5.1121611731727796
10
26.462778239923168
20
-5.8707834179415705
42
0.16604883292754277
0
CIRCLE
5
101
100
AcDbEntity
8
0
100
AcDbCircle
10
0
20
6.6613381477509392e-15
30
0
40
14.000000000000002
210
0
220
0
230
1
0
CIRCLE
5
102
100
AcDbEntity
8
0
100
AcDbCircle
10
37.500000000000007
20
-2.1362653339859173e-15
30
0
40
0.49999999999999822
210
0
220
-0
230
1
0
CIRCLE
5
103
100
AcDbEntity
8
0
100
AcDbCircle
10
4.4159716337670557e-15
20
37.500000000000007
30
0
40
0.5
210
0
220
-0
230
1
0
CIRCLE
5
104
100
AcDbEntity
8
0
100
AcDbCircle
10
-37.500000000000007
20
6.698976578590138e-15
30
0
40
0.49999999999999822
210
0
220
-0
230
1
0
ENDSEC
0
SECTION
2
OBJECTS
0
DICTIONARY
5
C
100
AcDbDictionary
3
ACAD_GROUP
350
D
3
ACAD_MLINESTYLE
350
17
0
DICTIONARY
5
D
100
AcDbDictionary
0
DICTIONARY
5
1A
330
C
100
AcDbDictionary
0
DICTIONARY
5
17
100
AcDbDictionary
0
ENDSEC
0
EOF
